<svg xmlns="http://www.w3.org/2000/svg" width="1200" height="760" viewBox="0 0 1200 760" role="img" aria-labelledby="title desc">
<title id="title">Heart Risk MLOps architecture on AWS</title>
<desc id="desc">Offline training, online inference, monitoring, and quality-gated pipeline flows inside an AWS Cloud boundary.</desc>
<defs><marker id="a" markerWidth="10" markerHeight="10" refX="8" refY="3" orient="auto"><path d="M0,0 L0,6 L9,3 z" fill="#2878b5"/></marker><marker id="i" markerWidth="10" markerHeight="10" refX="8" refY="3" orient="auto"><path d="M0,0 L0,6 L9,3 z" fill="#d86613"/></marker><marker id="m" markerWidth="10" markerHeight="10" refX="8" refY="3" orient="auto"><path d="M0,0 L0,6 L9,3 z" fill="#5b3f91"/></marker><style>.box{fill:#fff;stroke:#4b5563;stroke-width:2;rx:8}.h{font:700 17px Arial;fill:#111827}.t{font:14px Arial;fill:#1f2937}.lane{fill:#f8fafc;stroke:#cbd5e1;stroke-width:1}.data{stroke:#2878b5;stroke-width:3;fill:none;marker-end:url(#a)}.infer{stroke:#d86613;stroke-width:3;fill:none;marker-end:url(#i)}.mon{stroke:#5b3f91;stroke-width:3;fill:none;marker-end:url(#m)}</style></defs>
<rect x="18" y="18" width="1164" height="724" rx="18" fill="#fff8ee" stroke="#ff9900" stroke-width="3"/><text x="45" y="52" class="h">AWS Cloud · us-east-1</text>
<rect class="lane" x="45" y="72" width="1110" height="185" rx="10"/><text x="65" y="100" class="h">Offline data and ML flow</text>
<g><rect class="box" x="65" y="125" width="150" height="72"/><text x="140" y="153" text-anchor="middle" class="h">Amazon S3</text><text x="140" y="177" text-anchor="middle" class="t">raw + manifest</text><rect class="box" x="270" y="125" width="165" height="72"/><text x="352" y="153" text-anchor="middle" class="h">Processing</text><text x="352" y="177" text-anchor="middle" class="t">train-only fit</text><rect class="box" x="490" y="125" width="165" height="72"/><text x="572" y="153" text-anchor="middle" class="h">Training / HPO</text><text x="572" y="177" text-anchor="middle" class="t">LR + XGBoost</text><rect class="box" x="710" y="125" width="165" height="72"/><text x="792" y="153" text-anchor="middle" class="h">Evaluation</text><text x="792" y="177" text-anchor="middle" class="t">AUC · F1 · recall</text><rect class="box" x="930" y="125" width="185" height="72"/><text x="1022" y="153" text-anchor="middle" class="h">Model Registry</text><text x="1022" y="177" text-anchor="middle" class="t">manual approval</text><path class="data" d="M215 161H265"/><path class="data" d="M435 161H485"/><path class="data" d="M655 161H705"/><path class="data" d="M875 161H925"/></g>
<rect class="lane" x="45" y="275" width="1110" height="150" rx="10"/><text x="65" y="303" class="h">Online inference flow</text>
<g><rect class="box" x="65" y="330" width="170" height="62"/><text x="150" y="356" text-anchor="middle" class="h">API Gateway</text><text x="150" y="378" text-anchor="middle" class="t">/health · /predict</text><rect class="box" x="330" y="330" width="170" height="62"/><text x="415" y="356" text-anchor="middle" class="h">AWS Lambda</text><text x="415" y="378" text-anchor="middle" class="t">validate + invoke</text><rect class="box" x="595" y="330" width="210" height="62"/><text x="700" y="356" text-anchor="middle" class="h">SageMaker Endpoint</text><text x="700" y="378" text-anchor="middle" class="t">heart-risk-endpoint</text><rect class="box" x="900" y="330" width="180" height="62"/><text x="990" y="356" text-anchor="middle" class="h">JSON response</text><text x="990" y="378" text-anchor="middle" class="t">prediction + disclaimer</text><path class="infer" d="M235 361H325"/><path class="infer" d="M500 361H590"/><path class="infer" d="M805 361H895"/></g>
<rect class="lane" x="45" y="443" width="1110" height="135" rx="10"/><text x="65" y="471" class="h">Monitoring flow</text>
<g><rect class="box" x="65" y="493" width="190" height="58"/><text x="160" y="518" text-anchor="middle" class="h">Data Capture / S3</text><text x="160" y="539" text-anchor="middle" class="t">JSONL current data</text><rect class="box" x="340" y="493" width="190" height="58"/><text x="435" y="518" text-anchor="middle" class="h">Custom Processing</text><text x="435" y="539" text-anchor="middle" class="t">drift report</text><rect class="box" x="615" y="493" width="190" height="58"/><text x="710" y="518" text-anchor="middle" class="h">CloudWatch</text><text x="710" y="539" text-anchor="middle" class="t">custom metrics</text><rect class="box" x="890" y="493" width="190" height="58"/><text x="980" y="518" text-anchor="middle" class="h">Alarm</text><text x="980" y="539" text-anchor="middle" class="t">ALARM · missing ignore</text><path class="mon" d="M255 522H335"/><path class="mon" d="M530 522H610"/><path class="mon" d="M805 522H885"/></g>
<rect class="lane" x="45" y="596" width="1110" height="98" rx="10"/><text x="65" y="624" class="h">Pipeline quality gate</text><text x="65" y="653" class="t">Preprocess → Train → Evaluate → Check AUC/F1/Recall</text><path class="data" d="M440 650H595"/><text x="620" y="642" class="t">pass → RegisterModel</text><text x="620" y="670" class="t">fail → MetricThresholdFailed</text>
<g><line x1="760" y1="716" x2="805" y2="716" class="data"/><text x="815" y="721" class="t">data</text><line x1="880" y1="716" x2="925" y2="716" class="infer"/><text x="935" y="721" class="t">inference</text><line x1="1030" y1="716" x2="1075" y2="716" class="mon"/><text x="1085" y="721" class="t">monitoring</text></g></svg>